Lucky.Number.Slevin.2006.720p.BRRip.x264.aac.mp4-anoXmous

Format                           : MPEG-4
Format profile                   : Base Media
Codec ID                         : isom
File size                        : 697 MiB
Duration                         : 1h 50mn
Overall bit rate mode            : Variable
Overall bit rate                 : 885 Kbps


Video
ID                               : 1
Format                           : AVC
Format/Info                      : Advanced Video Codec
Format profile                   : High@L4.1
Format settings, CABAC           : Yes
Format settings, ReFrames        : 4 frames
Codec ID                         : avc1
Codec ID/Info                    : Advanced Video Coding
Duration                         : 1h 50mn
Bit rate                         : 821 Kbps
Maximum bit rate                 : 6 146 Kbps
Width                            : 1 280 pixels
Height                           : 544 pixels
Display aspect ratio             : 2.35:1
Frame rate mode                  : Constant
Frame rate                       : 23.976 fps
Color space                      : YUV
Chroma subsampling               : 4:2:0
Bit depth                        : 8 bits
Scan type                        : Progressive
Bits/(Pixel*Frame)               : 0.049
Stream size                      : 646 MiB (93%)
Writing library                  : x264 core 119 r2106 07efeb4

Audio
ID                               : 2
Format                           : AAC
Format/Info                      : Advanced Audio Codec
Format profile                   : HE-AAC / LC
Codec ID                         : 40
Duration                         : 1h 50mn
Bit rate mode                    : Variable
Bit rate                         : 62.3 Kbps
Maximum bit rate                 : 78.7 Kbps
Channel(s)                       : 2 channels
Channel positions                : Front: L R
Sampling rate                    : 48.0 KHz / 24.0 KHz
Compression mode                 : Lossy
Stream size                      : 49.1 MiB (7%)
Language                         : English

                                SUB !

Lucky.Number.Slevin.2006.720p.BRRip.x264.aac.mp4-anoXmous_swe.srt
 
http://www.imdb.com/title/tt0425210/

______This 1 should work very fine with PSP and XBOX_____ 